<svg width="64" height="64" viewBox="0 0 64 64" fill="none" xmlns="http://www.w3.org/2000/svg">
  <defs>
    <linearGradient id="bg" x1="8" y1="6" x2="56" y2="60" gradientUnits="userSpaceOnUse">
      <stop offset="0" stop-color="#F8FCFF"/>
      <stop offset="0.48" stop-color="#F4F2FF"/>
      <stop offset="1" stop-color="#FFF7FA"/>
    </linearGradient>
    <linearGradient id="photo" x1="20" y1="17" x2="45" y2="43" gradientUnits="userSpaceOnUse">
      <stop offset="0" stop-color="#9ED8E6"/>
      <stop offset="0.42" stop-color="#D9C8F2"/>
      <stop offset="0.72" stop-color="#F3C1C9"/>
      <stop offset="1" stop-color="#F8DDAA"/>
    </linearGradient>
    <filter id="softShadow" x="7" y="6" width="52" height="55" filterUnits="userSpaceOnUse" color-interpolation-filters="sRGB">
      <feDropShadow dx="0" dy="7" stdDeviation="5" flood-color="#243047" flood-opacity="0.16"/>
    </filter>
  </defs>

  <rect x="4" y="4" width="56" height="56" rx="17" fill="url(#bg)"/>
  <rect x="4.5" y="4.5" width="55" height="55" rx="16.5" stroke="white" stroke-opacity="0.85"/>

  <g filter="url(#softShadow)">
    <rect x="17" y="13" width="31" height="39" rx="9" fill="white" fill-opacity="0.72"/>
    <rect x="17.5" y="13.5" width="30" height="38" rx="8.5" stroke="white" stroke-opacity="0.9"/>
    <rect x="21" y="17" width="23" height="24" rx="6" fill="url(#photo)"/>
    <path d="M21 35.5L27.4 29.8C28.3 29 29.6 29 30.5 29.8L34.1 33L36.6 30.7C37.5 29.9 38.9 29.9 39.8 30.8L44 35V41H21V35.5Z" fill="#FFFFFF" fill-opacity="0.32"/>
    <circle cx="39.2" cy="22.5" r="2.7" fill="#FFFFFF" fill-opacity="0.66"/>
  </g>

  <g>
    <rect x="20.5" y="44.5" width="5.7" height="4.2" rx="2.1" fill="#8FD3DD"/>
    <rect x="27.2" y="44.5" width="5.7" height="4.2" rx="2.1" fill="#B9A7E9"/>
    <rect x="33.9" y="44.5" width="5.7" height="4.2" rx="2.1" fill="#E9A8B7"/>
    <rect x="40.6" y="44.5" width="5.7" height="4.2" rx="2.1" fill="#F4CF8F"/>
  </g>

  <path d="M13.8 19.2L15 16.2L16.2 19.2L19.1 20.4L16.2 21.6L15 24.6L13.8 21.6L10.9 20.4L13.8 19.2Z" fill="#FFFFFF" fill-opacity="0.95"/>
  <path d="M48.4 10.8L49.2 8.8L50 10.8L52 11.6L50 12.4L49.2 14.4L48.4 12.4L46.4 11.6L48.4 10.8Z" fill="#FFFFFF" fill-opacity="0.78"/>
</svg>
